<?xml version="1.0"?>
<svg xmlns="http://www.w3.org/2000/svg" xmlns:xlink="http://www.w3.org/1999/xlink" version="1.1" viewBox="0 0 252 252" width="512px" height="512px"><g fill="none" fill-rule="nonzero" stroke="none" stroke-width="1" stroke-linecap="butt" stroke-linejoin="miter" stroke-miterlimit="10" stroke-dasharray="" stroke-dashoffset="0" font-family="none" font-weight="none" font-size="none" text-anchor="none" style="mix-blend-mode: normal"><path d="M0,252v-252h252v252z" fill="none"/><g id="Layer_1"><g><g fill="#1bbc9b"><g><g><g><g><g><g><path d="M248.11172,126c0,-67.42969 -54.68203,-122.11172 -122.11172,-122.11172c-67.42969,0 -122.11172,54.68203 -122.11172,122.11172c0,67.42969 54.68203,122.11172 122.11172,122.11172c67.42969,0 122.11172,-54.68203 122.11172,-122.11172z"/></g></g></g></g></g></g></g><g fill="#ffffff"><g><path d="M193.23281,85.09922c-2.85469,-7.43203 -8.71172,-6.25078 -15.06094,-4.97109c-3.78984,0.7875 -20.67187,5.70937 -47.29922,33.8625c-11.07422,11.66484 -18.35859,20.96719 -23.18203,28.05469c-2.95312,-3.59297 -6.3,-7.48125 -9.84375,-10.97578c-10.87734,-10.87734 -23.03437,-18.35859 -23.52656,-18.65391c-5.06953,-3.10078 -11.71406,-1.52578 -14.86406,3.59297c-3.10078,5.06953 -1.52578,11.71406 3.54375,14.86406c0.09844,0.04922 10.53281,6.49688 19.49062,15.50391c9.15469,9.15469 17.47266,21.55781 17.57109,21.70547c2.01797,3.05156 5.41406,4.82344 9.00703,4.82344c0.59063,0 1.23047,-0.04922 1.87031,-0.14766c4.23281,-0.73828 7.57969,-3.88828 8.61328,-8.02266c0.04922,-0.09844 4.33125,-11.96016 26.92266,-35.78203c18.21094,-19.24453 30.36797,-25.34766 34.60078,-27.02109c0.04922,0 0.04922,0 0.14766,0c0,0 0.14766,-0.04922 0.39375,-0.19688c0.73828,-0.29531 1.13203,-0.39375 1.13203,-0.39375c-0.19688,0.04922 -0.29531,0.04922 -0.29531,0.04922v-0.04922c1.96875,-0.83672 5.61094,-2.41172 5.66016,-2.46094c5.46328,-2.3625 7.28437,-8.26875 5.11875,-13.78125z"/></g></g></g></g></g></svg>
